<mxfile host="Electron" agent="Mozilla/5.0 (X11; Linux x86_64) AppleWebKit/537.36 (KHTML, like Gecko) draw.io/28.1.2 Chrome/138.0.7204.243 Electron/37.4.0 Safari/537.36" version="28.1.2">
  <diagram name="Page-1" id="OFqUeLZzi5xFNMrk1Dd9">
    <mxGraphModel dx="1677" dy="1003" grid="1" gridSize="10" guides="1" tooltips="1" connect="1" arrows="1" fold="1" page="1" pageScale="1" pageWidth="850" pageHeight="1100" math="1" shadow="0">
      <root>
        <mxCell id="0" />
        <mxCell id="1" parent="0" />
        <mxCell id="VRhFHbVj0hyD3o1stact-6" value="" style="endArrow=none;html=1;rounded=0;strokeWidth=4;" edge="1" parent="1">
          <mxGeometry width="50" height="50" relative="1" as="geometry">
            <mxPoint x="10" y="400" as="sourcePoint" />
            <mxPoint x="330" y="400" as="targetPoint" />
          </mxGeometry>
        </mxCell>
        <mxCell id="VRhFHbVj0hyD3o1stact-13" value="" style="endArrow=none;html=1;rounded=0;strokeWidth=4;" edge="1" parent="1">
          <mxGeometry width="50" height="50" relative="1" as="geometry">
            <mxPoint x="10" y="480" as="sourcePoint" />
            <mxPoint x="330" y="480" as="targetPoint" />
          </mxGeometry>
        </mxCell>
        <mxCell id="VRhFHbVj0hyD3o1stact-16" value="&lt;font style=&quot;font-size: 20px;&quot;&gt;$$P_{UP}$$&lt;/font&gt;" style="text;html=1;align=center;verticalAlign=middle;whiteSpace=wrap;rounded=0;" vertex="1" parent="1">
          <mxGeometry x="30" y="280" width="60" height="30" as="geometry" />
        </mxCell>
        <mxCell id="VRhFHbVj0hyD3o1stact-17" value="&lt;font style=&quot;font-size: 20px;&quot;&gt;$$N_{UP}$$&lt;/font&gt;" style="text;html=1;align=center;verticalAlign=middle;whiteSpace=wrap;rounded=0;" vertex="1" parent="1">
          <mxGeometry x="153" y="280" width="60" height="30" as="geometry" />
        </mxCell>
        <mxCell id="VRhFHbVj0hyD3o1stact-18" value="&lt;font style=&quot;font-size: 20px;&quot;&gt;$$P_{DN}$$&lt;/font&gt;" style="text;html=1;align=center;verticalAlign=middle;whiteSpace=wrap;rounded=0;" vertex="1" parent="1">
          <mxGeometry x="30" y="560" width="60" height="30" as="geometry" />
        </mxCell>
        <mxCell id="VRhFHbVj0hyD3o1stact-19" value="&lt;font style=&quot;font-size: 20px;&quot;&gt;$$N_{DN}$$&lt;/font&gt;" style="text;html=1;align=center;verticalAlign=middle;whiteSpace=wrap;rounded=0;" vertex="1" parent="1">
          <mxGeometry x="150" y="560" width="60" height="30" as="geometry" />
        </mxCell>
        <mxCell id="VRhFHbVj0hyD3o1stact-2" value="" style="pointerEvents=1;verticalLabelPosition=bottom;shadow=0;dashed=0;align=center;html=1;verticalAlign=top;shape=mxgraph.electrical.capacitors.capacitor_1;direction=south;strokeWidth=4;strokeColor=#FF0000;" vertex="1" parent="1">
          <mxGeometry x="60" y="300" width="60" height="100" as="geometry" />
        </mxCell>
        <mxCell id="VRhFHbVj0hyD3o1stact-3" value="" style="pointerEvents=1;verticalLabelPosition=bottom;shadow=0;dashed=0;align=center;html=1;verticalAlign=top;shape=mxgraph.electrical.capacitors.capacitor_1;direction=south;strokeWidth=4;strokeColor=#0000FF;" vertex="1" parent="1">
          <mxGeometry x="180" y="300" width="60" height="100" as="geometry" />
        </mxCell>
        <mxCell id="VRhFHbVj0hyD3o1stact-4" value="" style="shape=waypoint;sketch=0;fillStyle=solid;size=6;pointerEvents=1;points=[];fillColor=none;resizable=0;rotatable=0;perimeter=centerPerimeter;snapToPoint=1;strokeWidth=4;strokeColor=#FF0000;" vertex="1" parent="1">
          <mxGeometry x="80" y="390" width="20" height="20" as="geometry" />
        </mxCell>
        <mxCell id="VRhFHbVj0hyD3o1stact-5" value="" style="shape=waypoint;sketch=0;fillStyle=solid;size=6;pointerEvents=1;points=[];fillColor=none;resizable=0;rotatable=0;perimeter=centerPerimeter;snapToPoint=1;strokeWidth=4;strokeColor=#0000FF;" vertex="1" parent="1">
          <mxGeometry x="200" y="390" width="20" height="20" as="geometry" />
        </mxCell>
        <mxCell id="VRhFHbVj0hyD3o1stact-20" value="&lt;font style=&quot;font-size: 24px; color: rgb(0, 0, 255);&quot;&gt;&lt;b&gt;&lt;i&gt;0&lt;/i&gt;&lt;/b&gt;&lt;/font&gt;" style="text;html=1;align=center;verticalAlign=middle;whiteSpace=wrap;rounded=0;" vertex="1" parent="1">
          <mxGeometry x="210" y="290" width="60" height="30" as="geometry" />
        </mxCell>
        <mxCell id="VRhFHbVj0hyD3o1stact-21" value="&lt;font style=&quot;font-size: 24px; color: rgb(255, 0, 0);&quot;&gt;&lt;b style=&quot;&quot;&gt;&lt;i style=&quot;&quot;&gt;1&lt;/i&gt;&lt;/b&gt;&lt;/font&gt;" style="text;html=1;align=center;verticalAlign=middle;whiteSpace=wrap;rounded=0;" vertex="1" parent="1">
          <mxGeometry x="80" y="290" width="60" height="30" as="geometry" />
        </mxCell>
        <mxCell id="VRhFHbVj0hyD3o1stact-10" value="" style="pointerEvents=1;verticalLabelPosition=bottom;shadow=0;dashed=0;align=center;html=1;verticalAlign=top;shape=mxgraph.electrical.capacitors.capacitor_1;direction=south;strokeWidth=4;strokeColor=#FF0000;" vertex="1" parent="1">
          <mxGeometry x="60" y="480" width="60" height="100" as="geometry" />
        </mxCell>
        <mxCell id="VRhFHbVj0hyD3o1stact-11" value="" style="pointerEvents=1;verticalLabelPosition=bottom;shadow=0;dashed=0;align=center;html=1;verticalAlign=top;shape=mxgraph.electrical.capacitors.capacitor_1;direction=south;strokeWidth=4;strokeColor=#0000FF;" vertex="1" parent="1">
          <mxGeometry x="180" y="480" width="60" height="100" as="geometry" />
        </mxCell>
        <mxCell id="VRhFHbVj0hyD3o1stact-12" value="" style="shape=waypoint;sketch=0;fillStyle=solid;size=6;pointerEvents=1;points=[];fillColor=none;resizable=0;rotatable=0;perimeter=centerPerimeter;snapToPoint=1;strokeWidth=4;strokeColor=#FF0000;" vertex="1" parent="1">
          <mxGeometry x="80" y="470" width="20" height="20" as="geometry" />
        </mxCell>
        <mxCell id="VRhFHbVj0hyD3o1stact-14" value="" style="shape=waypoint;sketch=0;fillStyle=solid;size=6;pointerEvents=1;points=[];fillColor=none;resizable=0;rotatable=0;perimeter=centerPerimeter;snapToPoint=1;strokeWidth=4;strokeColor=#0000FF;" vertex="1" parent="1">
          <mxGeometry x="200" y="470" width="20" height="20" as="geometry" />
        </mxCell>
        <mxCell id="VRhFHbVj0hyD3o1stact-22" value="&lt;font style=&quot;font-size: 24px; color: rgb(0, 0, 255);&quot;&gt;&lt;b&gt;&lt;i&gt;0&lt;/i&gt;&lt;/b&gt;&lt;/font&gt;" style="text;html=1;align=center;verticalAlign=middle;whiteSpace=wrap;rounded=0;" vertex="1" parent="1">
          <mxGeometry x="213" y="560" width="60" height="30" as="geometry" />
        </mxCell>
        <mxCell id="VRhFHbVj0hyD3o1stact-23" value="&lt;font style=&quot;font-size: 24px; color: rgb(255, 0, 0);&quot;&gt;&lt;b style=&quot;&quot;&gt;&lt;i style=&quot;&quot;&gt;1&lt;/i&gt;&lt;/b&gt;&lt;/font&gt;" style="text;html=1;align=center;verticalAlign=middle;whiteSpace=wrap;rounded=0;" vertex="1" parent="1">
          <mxGeometry x="83" y="560" width="60" height="30" as="geometry" />
        </mxCell>
        <mxCell id="VRhFHbVj0hyD3o1stact-24" value="" style="endArrow=none;html=1;rounded=0;strokeWidth=4;" edge="1" parent="1">
          <mxGeometry width="50" height="50" relative="1" as="geometry">
            <mxPoint x="560" y="233" as="sourcePoint" />
            <mxPoint x="880" y="233" as="targetPoint" />
          </mxGeometry>
        </mxCell>
        <mxCell id="VRhFHbVj0hyD3o1stact-25" value="" style="endArrow=none;html=1;rounded=0;strokeWidth=4;" edge="1" parent="1">
          <mxGeometry width="50" height="50" relative="1" as="geometry">
            <mxPoint x="560" y="313" as="sourcePoint" />
            <mxPoint x="880" y="313" as="targetPoint" />
          </mxGeometry>
        </mxCell>
        <mxCell id="VRhFHbVj0hyD3o1stact-26" value="&lt;font style=&quot;font-size: 20px;&quot;&gt;$$P_{UP}$$&lt;/font&gt;" style="text;html=1;align=center;verticalAlign=middle;whiteSpace=wrap;rounded=0;" vertex="1" parent="1">
          <mxGeometry x="580" y="123" width="60" height="30" as="geometry" />
        </mxCell>
        <mxCell id="VRhFHbVj0hyD3o1stact-27" value="&lt;font style=&quot;font-size: 20px;&quot;&gt;$$N_{UP}$$&lt;/font&gt;" style="text;html=1;align=center;verticalAlign=middle;whiteSpace=wrap;rounded=0;" vertex="1" parent="1">
          <mxGeometry x="700" y="123" width="60" height="30" as="geometry" />
        </mxCell>
        <mxCell id="VRhFHbVj0hyD3o1stact-28" value="&lt;font style=&quot;font-size: 20px;&quot;&gt;$$P_{DN}$$&lt;/font&gt;" style="text;html=1;align=center;verticalAlign=middle;whiteSpace=wrap;rounded=0;" vertex="1" parent="1">
          <mxGeometry x="580" y="394" width="60" height="30" as="geometry" />
        </mxCell>
        <mxCell id="VRhFHbVj0hyD3o1stact-29" value="&lt;font style=&quot;font-size: 20px;&quot;&gt;$$N_{DN}$$&lt;/font&gt;" style="text;html=1;align=center;verticalAlign=middle;whiteSpace=wrap;rounded=0;" vertex="1" parent="1">
          <mxGeometry x="693" y="394" width="60" height="30" as="geometry" />
        </mxCell>
        <mxCell id="VRhFHbVj0hyD3o1stact-30" value="" style="pointerEvents=1;verticalLabelPosition=bottom;shadow=0;dashed=0;align=center;html=1;verticalAlign=top;shape=mxgraph.electrical.capacitors.capacitor_1;direction=south;strokeWidth=4;strokeColor=#FF0000;" vertex="1" parent="1">
          <mxGeometry x="610" y="133" width="60" height="100" as="geometry" />
        </mxCell>
        <mxCell id="VRhFHbVj0hyD3o1stact-31" value="" style="pointerEvents=1;verticalLabelPosition=bottom;shadow=0;dashed=0;align=center;html=1;verticalAlign=top;shape=mxgraph.electrical.capacitors.capacitor_1;direction=south;strokeWidth=4;strokeColor=#FF0000;" vertex="1" parent="1">
          <mxGeometry x="730" y="133" width="60" height="100" as="geometry" />
        </mxCell>
        <mxCell id="VRhFHbVj0hyD3o1stact-32" value="" style="shape=waypoint;sketch=0;fillStyle=solid;size=6;pointerEvents=1;points=[];fillColor=none;resizable=0;rotatable=0;perimeter=centerPerimeter;snapToPoint=1;strokeWidth=4;strokeColor=#FF0000;" vertex="1" parent="1">
          <mxGeometry x="630" y="223" width="20" height="20" as="geometry" />
        </mxCell>
        <mxCell id="VRhFHbVj0hyD3o1stact-33" value="" style="shape=waypoint;sketch=0;fillStyle=solid;size=6;pointerEvents=1;points=[];fillColor=none;resizable=0;rotatable=0;perimeter=centerPerimeter;snapToPoint=1;strokeWidth=4;strokeColor=#FF0000;" vertex="1" parent="1">
          <mxGeometry x="750" y="223" width="20" height="20" as="geometry" />
        </mxCell>
        <mxCell id="VRhFHbVj0hyD3o1stact-34" value="&lt;font style=&quot;font-size: 24px; color: rgb(255, 0, 0);&quot;&gt;&lt;b style=&quot;&quot;&gt;&lt;i style=&quot;&quot;&gt;1&lt;/i&gt;&lt;/b&gt;&lt;/font&gt;" style="text;html=1;align=center;verticalAlign=middle;whiteSpace=wrap;rounded=0;" vertex="1" parent="1">
          <mxGeometry x="760" y="123" width="60" height="30" as="geometry" />
        </mxCell>
        <mxCell id="VRhFHbVj0hyD3o1stact-35" value="&lt;font style=&quot;font-size: 24px; color: rgb(255, 0, 0);&quot;&gt;&lt;b style=&quot;&quot;&gt;&lt;i style=&quot;&quot;&gt;1&lt;/i&gt;&lt;/b&gt;&lt;/font&gt;" style="text;html=1;align=center;verticalAlign=middle;whiteSpace=wrap;rounded=0;" vertex="1" parent="1">
          <mxGeometry x="630" y="123" width="60" height="30" as="geometry" />
        </mxCell>
        <mxCell id="VRhFHbVj0hyD3o1stact-36" value="" style="pointerEvents=1;verticalLabelPosition=bottom;shadow=0;dashed=0;align=center;html=1;verticalAlign=top;shape=mxgraph.electrical.capacitors.capacitor_1;direction=south;strokeWidth=4;strokeColor=#0000FF;" vertex="1" parent="1">
          <mxGeometry x="610" y="313" width="60" height="100" as="geometry" />
        </mxCell>
        <mxCell id="VRhFHbVj0hyD3o1stact-37" value="" style="pointerEvents=1;verticalLabelPosition=bottom;shadow=0;dashed=0;align=center;html=1;verticalAlign=top;shape=mxgraph.electrical.capacitors.capacitor_1;direction=south;strokeWidth=4;strokeColor=#0000FF;" vertex="1" parent="1">
          <mxGeometry x="730" y="313" width="60" height="100" as="geometry" />
        </mxCell>
        <mxCell id="VRhFHbVj0hyD3o1stact-38" value="" style="shape=waypoint;sketch=0;fillStyle=solid;size=6;pointerEvents=1;points=[];fillColor=none;resizable=0;rotatable=0;perimeter=centerPerimeter;snapToPoint=1;strokeWidth=4;strokeColor=#0000FF;" vertex="1" parent="1">
          <mxGeometry x="630" y="303" width="20" height="20" as="geometry" />
        </mxCell>
        <mxCell id="VRhFHbVj0hyD3o1stact-39" value="" style="shape=waypoint;sketch=0;fillStyle=solid;size=6;pointerEvents=1;points=[];fillColor=none;resizable=0;rotatable=0;perimeter=centerPerimeter;snapToPoint=1;strokeWidth=4;strokeColor=#0000FF;" vertex="1" parent="1">
          <mxGeometry x="750" y="303" width="20" height="20" as="geometry" />
        </mxCell>
        <mxCell id="VRhFHbVj0hyD3o1stact-40" value="&lt;font style=&quot;font-size: 24px; color: rgb(0, 0, 255);&quot;&gt;&lt;b&gt;&lt;i&gt;0&lt;/i&gt;&lt;/b&gt;&lt;/font&gt;" style="text;html=1;align=center;verticalAlign=middle;whiteSpace=wrap;rounded=0;" vertex="1" parent="1">
          <mxGeometry x="763" y="394" width="60" height="30" as="geometry" />
        </mxCell>
        <mxCell id="VRhFHbVj0hyD3o1stact-41" value="&lt;font style=&quot;font-size: 24px; color: rgb(0, 0, 255);&quot;&gt;&lt;b style=&quot;&quot;&gt;&lt;i style=&quot;&quot;&gt;0&lt;/i&gt;&lt;/b&gt;&lt;/font&gt;" style="text;html=1;align=center;verticalAlign=middle;whiteSpace=wrap;rounded=0;" vertex="1" parent="1">
          <mxGeometry x="633" y="394" width="60" height="30" as="geometry" />
        </mxCell>
        <mxCell id="VRhFHbVj0hyD3o1stact-60" value="" style="endArrow=none;html=1;rounded=0;strokeWidth=4;" edge="1" parent="1">
          <mxGeometry width="50" height="50" relative="1" as="geometry">
            <mxPoint x="560" y="564" as="sourcePoint" />
            <mxPoint x="880" y="564" as="targetPoint" />
          </mxGeometry>
        </mxCell>
        <mxCell id="VRhFHbVj0hyD3o1stact-61" value="" style="endArrow=none;html=1;rounded=0;strokeWidth=4;" edge="1" parent="1">
          <mxGeometry width="50" height="50" relative="1" as="geometry">
            <mxPoint x="560" y="644" as="sourcePoint" />
            <mxPoint x="880" y="644" as="targetPoint" />
          </mxGeometry>
        </mxCell>
        <mxCell id="VRhFHbVj0hyD3o1stact-62" value="&lt;font style=&quot;font-size: 20px;&quot;&gt;$$P_{UP}$$&lt;/font&gt;" style="text;html=1;align=center;verticalAlign=middle;whiteSpace=wrap;rounded=0;" vertex="1" parent="1">
          <mxGeometry x="570" y="454" width="60" height="30" as="geometry" />
        </mxCell>
        <mxCell id="VRhFHbVj0hyD3o1stact-63" value="&lt;font style=&quot;font-size: 20px;&quot;&gt;$$N_{UP}$$&lt;/font&gt;" style="text;html=1;align=center;verticalAlign=middle;whiteSpace=wrap;rounded=0;" vertex="1" parent="1">
          <mxGeometry x="700" y="454" width="60" height="30" as="geometry" />
        </mxCell>
        <mxCell id="VRhFHbVj0hyD3o1stact-64" value="&lt;font style=&quot;font-size: 20px;&quot;&gt;$$P_{DN}$$&lt;/font&gt;" style="text;html=1;align=center;verticalAlign=middle;whiteSpace=wrap;rounded=0;" vertex="1" parent="1">
          <mxGeometry x="570" y="724" width="60" height="30" as="geometry" />
        </mxCell>
        <mxCell id="VRhFHbVj0hyD3o1stact-65" value="&lt;font style=&quot;font-size: 20px;&quot;&gt;$$N_{DN}$$&lt;/font&gt;" style="text;html=1;align=center;verticalAlign=middle;whiteSpace=wrap;rounded=0;" vertex="1" parent="1">
          <mxGeometry x="700" y="724" width="60" height="30" as="geometry" />
        </mxCell>
        <mxCell id="VRhFHbVj0hyD3o1stact-66" value="" style="pointerEvents=1;verticalLabelPosition=bottom;shadow=0;dashed=0;align=center;html=1;verticalAlign=top;shape=mxgraph.electrical.capacitors.capacitor_1;direction=south;strokeWidth=4;strokeColor=#0000FF;" vertex="1" parent="1">
          <mxGeometry x="610" y="464" width="60" height="100" as="geometry" />
        </mxCell>
        <mxCell id="VRhFHbVj0hyD3o1stact-67" value="" style="pointerEvents=1;verticalLabelPosition=bottom;shadow=0;dashed=0;align=center;html=1;verticalAlign=top;shape=mxgraph.electrical.capacitors.capacitor_1;direction=south;strokeWidth=4;strokeColor=#0000FF;" vertex="1" parent="1">
          <mxGeometry x="730" y="464" width="60" height="100" as="geometry" />
        </mxCell>
        <mxCell id="VRhFHbVj0hyD3o1stact-68" value="" style="shape=waypoint;sketch=0;fillStyle=solid;size=6;pointerEvents=1;points=[];fillColor=none;resizable=0;rotatable=0;perimeter=centerPerimeter;snapToPoint=1;strokeWidth=4;strokeColor=#0000FF;" vertex="1" parent="1">
          <mxGeometry x="630" y="554" width="20" height="20" as="geometry" />
        </mxCell>
        <mxCell id="VRhFHbVj0hyD3o1stact-69" value="" style="shape=waypoint;sketch=0;fillStyle=solid;size=6;pointerEvents=1;points=[];fillColor=none;resizable=0;rotatable=0;perimeter=centerPerimeter;snapToPoint=1;strokeWidth=4;strokeColor=#0000FF;" vertex="1" parent="1">
          <mxGeometry x="750" y="554" width="20" height="20" as="geometry" />
        </mxCell>
        <mxCell id="VRhFHbVj0hyD3o1stact-70" value="&lt;font style=&quot;font-size: 24px; color: rgb(0, 0, 255);&quot;&gt;&lt;b&gt;&lt;i&gt;0&lt;/i&gt;&lt;/b&gt;&lt;/font&gt;" style="text;html=1;align=center;verticalAlign=middle;whiteSpace=wrap;rounded=0;" vertex="1" parent="1">
          <mxGeometry x="760" y="454" width="60" height="30" as="geometry" />
        </mxCell>
        <mxCell id="VRhFHbVj0hyD3o1stact-71" value="&lt;font style=&quot;font-size: 24px; color: rgb(0, 0, 255);&quot;&gt;&lt;b style=&quot;&quot;&gt;&lt;i style=&quot;&quot;&gt;0&lt;/i&gt;&lt;/b&gt;&lt;/font&gt;" style="text;html=1;align=center;verticalAlign=middle;whiteSpace=wrap;rounded=0;" vertex="1" parent="1">
          <mxGeometry x="630" y="454" width="60" height="30" as="geometry" />
        </mxCell>
        <mxCell id="VRhFHbVj0hyD3o1stact-72" value="" style="pointerEvents=1;verticalLabelPosition=bottom;shadow=0;dashed=0;align=center;html=1;verticalAlign=top;shape=mxgraph.electrical.capacitors.capacitor_1;direction=south;strokeWidth=4;strokeColor=#FF0000;" vertex="1" parent="1">
          <mxGeometry x="610" y="644" width="60" height="100" as="geometry" />
        </mxCell>
        <mxCell id="VRhFHbVj0hyD3o1stact-73" value="" style="pointerEvents=1;verticalLabelPosition=bottom;shadow=0;dashed=0;align=center;html=1;verticalAlign=top;shape=mxgraph.electrical.capacitors.capacitor_1;direction=south;strokeWidth=4;strokeColor=#FF0000;" vertex="1" parent="1">
          <mxGeometry x="730" y="644" width="60" height="100" as="geometry" />
        </mxCell>
        <mxCell id="VRhFHbVj0hyD3o1stact-74" value="" style="shape=waypoint;sketch=0;fillStyle=solid;size=6;pointerEvents=1;points=[];fillColor=none;resizable=0;rotatable=0;perimeter=centerPerimeter;snapToPoint=1;strokeWidth=4;strokeColor=#FF0000;" vertex="1" parent="1">
          <mxGeometry x="630" y="634" width="20" height="20" as="geometry" />
        </mxCell>
        <mxCell id="VRhFHbVj0hyD3o1stact-75" value="" style="shape=waypoint;sketch=0;fillStyle=solid;size=6;pointerEvents=1;points=[];fillColor=none;resizable=0;rotatable=0;perimeter=centerPerimeter;snapToPoint=1;strokeWidth=4;strokeColor=#FF0000;" vertex="1" parent="1">
          <mxGeometry x="750" y="634" width="20" height="20" as="geometry" />
        </mxCell>
        <mxCell id="VRhFHbVj0hyD3o1stact-76" value="&lt;font style=&quot;font-size: 24px; color: rgb(255, 0, 0);&quot;&gt;&lt;b style=&quot;&quot;&gt;&lt;i style=&quot;&quot;&gt;1&lt;/i&gt;&lt;/b&gt;&lt;/font&gt;" style="text;html=1;align=center;verticalAlign=middle;whiteSpace=wrap;rounded=0;" vertex="1" parent="1">
          <mxGeometry x="763" y="724" width="60" height="30" as="geometry" />
        </mxCell>
        <mxCell id="VRhFHbVj0hyD3o1stact-77" value="&lt;font style=&quot;font-size: 24px; color: rgb(255, 0, 0);&quot;&gt;&lt;b style=&quot;&quot;&gt;&lt;i style=&quot;&quot;&gt;1&lt;/i&gt;&lt;/b&gt;&lt;/font&gt;" style="text;html=1;align=center;verticalAlign=middle;whiteSpace=wrap;rounded=0;" vertex="1" parent="1">
          <mxGeometry x="633" y="724" width="60" height="30" as="geometry" />
        </mxCell>
        <mxCell id="VRhFHbVj0hyD3o1stact-80" value="&lt;font style=&quot;font-size: 24px; color: rgb(166, 128, 184);&quot;&gt;&lt;b style=&quot;&quot;&gt;&lt;i style=&quot;&quot;&gt;$$V_{CM}=0$$&lt;/i&gt;&lt;/b&gt;&lt;/font&gt;" style="text;html=1;align=center;verticalAlign=middle;whiteSpace=wrap;rounded=0;" vertex="1" parent="1">
          <mxGeometry x="290" y="410" width="60" height="30" as="geometry" />
        </mxCell>
        <mxCell id="VRhFHbVj0hyD3o1stact-91" value="" style="shape=flexArrow;endArrow=classic;html=1;rounded=0;strokeColor=#FFCC99;fillColor=#FFCC99;opacity=70;strokeWidth=6;" edge="1" parent="1">
          <mxGeometry width="50" height="50" relative="1" as="geometry">
            <mxPoint x="360" y="370" as="sourcePoint" />
            <mxPoint x="560" y="280" as="targetPoint" />
          </mxGeometry>
        </mxCell>
        <mxCell id="VRhFHbVj0hyD3o1stact-92" value="" style="shape=flexArrow;endArrow=classic;html=1;rounded=0;strokeColor=#FFCC99;fillColor=#FFCC99;opacity=70;strokeWidth=6;" edge="1" parent="1">
          <mxGeometry width="50" height="50" relative="1" as="geometry">
            <mxPoint x="360" y="500" as="sourcePoint" />
            <mxPoint x="560" y="610" as="targetPoint" />
          </mxGeometry>
        </mxCell>
        <mxCell id="VRhFHbVj0hyD3o1stact-93" value="&lt;font style=&quot;color: rgb(51, 51, 51); font-size: 16px;&quot;&gt;&lt;b style=&quot;&quot;&gt;&lt;i style=&quot;&quot;&gt;$$D_{CMP}=0$$&lt;/i&gt;&lt;/b&gt;&lt;/font&gt;" style="text;html=1;align=center;verticalAlign=middle;whiteSpace=wrap;rounded=0;" vertex="1" parent="1">
          <mxGeometry x="365" y="290" width="60" height="30" as="geometry" />
        </mxCell>
        <mxCell id="VRhFHbVj0hyD3o1stact-94" value="&lt;font style=&quot;color: rgb(51, 51, 51); font-size: 16px;&quot;&gt;&lt;b style=&quot;&quot;&gt;&lt;i style=&quot;&quot;&gt;$$D_{CMP}=1$$&lt;/i&gt;&lt;/b&gt;&lt;/font&gt;" style="text;html=1;align=center;verticalAlign=middle;whiteSpace=wrap;rounded=0;" vertex="1" parent="1">
          <mxGeometry x="365" y="560" width="60" height="30" as="geometry" />
        </mxCell>
        <mxCell id="VRhFHbVj0hyD3o1stact-96" value="" style="endArrow=none;html=1;rounded=0;dashed=1;strokeWidth=2;strokeColor=#A680B8;" edge="1" parent="1">
          <mxGeometry width="50" height="50" relative="1" as="geometry">
            <mxPoint x="10" y="440" as="sourcePoint" />
            <mxPoint x="360" y="440" as="targetPoint" />
          </mxGeometry>
        </mxCell>
        <mxCell id="VRhFHbVj0hyD3o1stact-98" value="" style="endArrow=none;html=1;rounded=0;dashed=1;strokeWidth=2;strokeColor=#A680B8;" edge="1" parent="1">
          <mxGeometry width="50" height="50" relative="1" as="geometry">
            <mxPoint x="560" y="271" as="sourcePoint" />
            <mxPoint x="910" y="271" as="targetPoint" />
          </mxGeometry>
        </mxCell>
        <mxCell id="VRhFHbVj0hyD3o1stact-100" value="" style="endArrow=none;html=1;rounded=0;dashed=1;strokeWidth=2;strokeColor=#A680B8;" edge="1" parent="1">
          <mxGeometry width="50" height="50" relative="1" as="geometry">
            <mxPoint x="560" y="606" as="sourcePoint" />
            <mxPoint x="910" y="606" as="targetPoint" />
          </mxGeometry>
        </mxCell>
        <mxCell id="VRhFHbVj0hyD3o1stact-101" value="&lt;font style=&quot;font-size: 24px; color: rgb(166, 128, 184);&quot;&gt;&lt;b style=&quot;&quot;&gt;&lt;i style=&quot;&quot;&gt;$$V_{CM}=0$$&lt;/i&gt;&lt;/b&gt;&lt;/font&gt;" style="text;html=1;align=center;verticalAlign=middle;whiteSpace=wrap;rounded=0;" vertex="1" parent="1">
          <mxGeometry x="851" y="240" width="60" height="30" as="geometry" />
        </mxCell>
        <mxCell id="VRhFHbVj0hyD3o1stact-102" value="&lt;font style=&quot;font-size: 24px; color: rgb(166, 128, 184);&quot;&gt;&lt;b style=&quot;&quot;&gt;&lt;i style=&quot;&quot;&gt;$$V_{CM}=0$$&lt;/i&gt;&lt;/b&gt;&lt;/font&gt;" style="text;html=1;align=center;verticalAlign=middle;whiteSpace=wrap;rounded=0;" vertex="1" parent="1">
          <mxGeometry x="850" y="574" width="60" height="30" as="geometry" />
        </mxCell>
        <mxCell id="VRhFHbVj0hyD3o1stact-103" value="&lt;font style=&quot;font-size: 16px; color: rgb(255, 0, 255);&quot;&gt;&lt;b style=&quot;&quot;&gt;&lt;i style=&quot;&quot;&gt;$$+\Delta V$$&lt;/i&gt;&lt;/b&gt;&lt;/font&gt;" style="text;html=1;align=center;verticalAlign=middle;whiteSpace=wrap;rounded=0;" vertex="1" parent="1">
          <mxGeometry x="840" y="203" width="60" height="30" as="geometry" />
        </mxCell>
        <mxCell id="VRhFHbVj0hyD3o1stact-104" value="&lt;font style=&quot;font-size: 16px; color: rgb(255, 0, 255);&quot;&gt;&lt;b style=&quot;&quot;&gt;&lt;i style=&quot;&quot;&gt;$$-\Delta V$$&lt;/i&gt;&lt;/b&gt;&lt;/font&gt;" style="text;html=1;align=center;verticalAlign=middle;whiteSpace=wrap;rounded=0;" vertex="1" parent="1">
          <mxGeometry x="840" y="310" width="60" height="30" as="geometry" />
        </mxCell>
        <mxCell id="VRhFHbVj0hyD3o1stact-105" value="&lt;font style=&quot;font-size: 16px; color: rgb(255, 0, 255);&quot;&gt;&lt;b style=&quot;&quot;&gt;&lt;i style=&quot;&quot;&gt;$$-\Delta V$$&lt;/i&gt;&lt;/b&gt;&lt;/font&gt;" style="text;html=1;align=center;verticalAlign=middle;whiteSpace=wrap;rounded=0;" vertex="1" parent="1">
          <mxGeometry x="830" y="535" width="60" height="30" as="geometry" />
        </mxCell>
        <mxCell id="VRhFHbVj0hyD3o1stact-106" value="&lt;font style=&quot;font-size: 16px; color: rgb(255, 0, 255);&quot;&gt;&lt;b style=&quot;&quot;&gt;&lt;i style=&quot;&quot;&gt;$$+\Delta V$$&lt;/i&gt;&lt;/b&gt;&lt;/font&gt;" style="text;html=1;align=center;verticalAlign=middle;whiteSpace=wrap;rounded=0;" vertex="1" parent="1">
          <mxGeometry x="830" y="644" width="60" height="30" as="geometry" />
        </mxCell>
      </root>
    </mxGraphModel>
  </diagram>
</mxfile>
